<?xml version="1.0" encoding="UTF-8"?>
<svg width="24px" height="24px" viewBox="0 0 24 24" version="1.1" xmlns="http://www.w3.org/2000/svg" xmlns:xlink="http://www.w3.org/1999/xlink">
    <!-- Generator: Sketch 52.4 (67378) - http://www.bohemiancoding.com/sketch -->
    <title>iconfinder_2018_social_media_popular_app_logo_facebook_3228552</title>
    <desc>Created with Sketch.</desc>
    <g id="Page-2" stroke="none" stroke-width="1" fill="none" fill-rule="evenodd">
        <g id="iconfinder_2018_social_media_popular_app_logo_facebook_3228552">
            <path d="M12,24 C5.3736,24 0,18.6264 0,12 C0,5.3736 5.3736,0 12,0 C18.6264,0 24,5.3736 24,12 C24,18.6264 18.6264,24 12,24 Z" id="Path" fill="#0074CE"></path>
            <path d="M15.12,24 L15.12,14.7048 L18.24,14.7048 L18.708,11.0832 L15.12,11.0832 L15.12,8.7696 C15.12,7.7208 15.4104,7.0056 16.9152,7.0056 L18.8328,7.0056 L18.8328,3.768 C18.5016,3.7248 17.3616,3.6264 16.0368,3.6264 C13.272,3.6264 11.3784,5.3136 11.3784,8.4144 L11.3784,11.0856 L8.2512,11.0856 L8.2512,14.7072 L11.3784,14.7072 L11.3784,24 L15.12,24 Z" id="f" fill="#FFFFFF"></path>
        </g>
    </g>
</svg>