<?xml version="1.0" encoding="UTF-8"?>
<svg width="24px" height="24px" viewBox="0 0 24 24" version="1.1" xmlns="http://www.w3.org/2000/svg" xmlns:xlink="http://www.w3.org/1999/xlink">
    <!-- Generator: Sketch 52.4 (67378) - http://www.bohemiancoding.com/sketch -->
    <title>iconfinder_2018_social_media_popular_app_logo_googleplus_3228538</title>
    <desc>Created with Sketch.</desc>
    <g id="Page-2" stroke="none" stroke-width="1" fill="none" fill-rule="evenodd">
        <g id="iconfinder_2018_social_media_popular_app_logo_googleplus_3228538">
            <path d="M12,24 C5.3736,24 0,18.6264 0,12 C0,5.3736 5.3736,0 12,0 C18.6264,0 24,5.3736 24,12 C24,18.6264 18.6264,24 12,24 Z" id="Path" fill="#0074CE"></path>
            <g id="Group" transform="translate(3.984000, 6.960000)" fill="#FFFFFF">
                <polygon id="Path" points="14.3136 4.1232 14.3136 2.4048 13.0536 2.4048 13.0536 4.1232 11.2224 4.1232 11.2224 5.3832 12.9408 5.3832 12.9408 7.1016 14.2008 7.1016 14.2008 5.3832 16.032 5.3832 16.032 4.1232 14.3136 4.1232"></polygon>
                <path d="M5.0376,4.0104 L5.0376,5.9568 L7.6704,5.9568 C7.4424,7.1016 6.4104,8.0184 5.0376,8.0184 C3.4344,8.0184 2.0592,6.6432 2.0592,5.04 C2.0592,3.4368 3.4344,2.0616 5.0376,2.0616 C5.724,2.0616 6.4128,2.2896 6.8688,2.748 L8.3568,1.26 C7.44,0.5736 6.4104,0 5.0352,0 C2.2896,0.0024 0,2.292 0,5.04 C0,7.788 2.2896,10.0776 5.0376,10.0776 C7.9008,10.0776 9.8472,8.016 9.8472,5.1528 C9.8472,4.8096 9.8472,4.3512 9.732,4.008 C9.7344,4.0104 5.0376,4.0104 5.0376,4.0104 Z" id="Path"></path>
            </g>
        </g>
    </g>
</svg>