<?xml version="1.0" encoding="UTF-8"?>
<svg width="24px" height="24px" viewBox="0 0 24 24" version="1.1" xmlns="http://www.w3.org/2000/svg" xmlns:xlink="http://www.w3.org/1999/xlink">
    <!-- Generator: Sketch 52.4 (67378) - http://www.bohemiancoding.com/sketch -->
    <title>iconfinder_2018_social_media_popular_app_logo_instagram_3228551</title>
    <desc>Created with Sketch.</desc>
    <g id="Page-2" stroke="none" stroke-width="1" fill="none" fill-rule="evenodd">
        <g id="iconfinder_2018_social_media_popular_app_logo_instagram_3228551">
            <path d="M12,24 C5.3736,24 0,18.6264 0,12 C0,5.3736 5.3736,0 12,0 C18.6264,0 24,5.3736 24,12 C24,18.6264 18.6264,24 12,24 Z" id="Path" fill="#0074CE"></path>
            <g id="Group" transform="translate(3.792000, 3.792000)" fill="#FFFFFF">
                <path d="M8.208,1.4928 C10.3944,1.4928 10.6536,1.5 11.5176,1.5408 C12.3168,1.5768 12.7512,1.7112 13.0392,1.824 C13.4208,1.9728 13.6944,2.1504 13.98,2.436 C14.2656,2.7216 14.4432,2.9952 14.592,3.3768 C14.7048,3.6648 14.8368,4.0992 14.8752,4.8984 C14.9136,5.7624 14.9232,6.0216 14.9232,8.208 C14.9232,10.3944 14.916,10.6536 14.8752,11.5176 C14.8392,12.3168 14.7048,12.7512 14.592,13.0392 C14.4432,13.4208 14.2656,13.6944 13.98,13.98 C13.6944,14.2656 13.4208,14.4432 13.0392,14.592 C12.7512,14.7048 12.3168,14.8368 11.5176,14.8752 C10.6536,14.9136 10.3944,14.9232 8.208,14.9232 C6.0216,14.9232 5.7624,14.916 4.8984,14.8752 C4.0992,14.8392 3.6648,14.7048 3.3768,14.592 C2.9952,14.4432 2.7216,14.2656 2.436,13.98 C2.1504,13.6944 1.9728,13.4208 1.824,13.0392 C1.7112,12.7512 1.5792,12.3168 1.5408,11.5176 C1.5024,10.6536 1.4928,10.3944 1.4928,8.208 C1.4928,6.0216 1.5,5.7624 1.5408,4.8984 C1.5768,4.0992 1.7112,3.6648 1.824,3.3768 C1.9728,2.9952 2.1504,2.7216 2.436,2.436 C2.7216,2.1504 2.9952,1.9728 3.3768,1.824 C3.6648,1.7112 4.0992,1.5792 4.8984,1.5408 C5.7624,1.5 6.0216,1.4928 8.208,1.4928 Z M8.208,0.0168 C5.9832,0.0168 5.7048,0.0264 4.8312,0.0672 C3.96,0.108 3.3648,0.2448 2.8416,0.4488 C2.304,0.6552 1.8456,0.936 1.392,1.392 C0.936,1.848 0.6576,2.304 0.4464,2.844 C0.2448,3.3648 0.1056,3.96 0.0648,4.8336 C0.024,5.7072 0.0144,5.9856 0.0144,8.2104 C0.0144,10.4352 0.024,10.7136 0.0648,11.5872 C0.1056,12.4584 0.2424,13.0536 0.4464,13.5768 C0.6552,14.112 0.936,14.5704 1.392,15.024 C1.848,15.48 2.304,15.7584 2.844,15.9696 C3.3648,16.1712 3.96,16.3104 4.8336,16.3512 C5.7072,16.392 5.9856,16.4016 8.2104,16.4016 C10.4352,16.4016 10.7136,16.392 11.5872,16.3512 C12.4584,16.3104 13.0536,16.1736 13.5768,15.9696 C14.112,15.7608 14.5704,15.48 15.024,15.024 C15.48,14.568 15.7584,14.112 15.9696,13.572 C16.1712,13.0512 16.3104,12.456 16.3512,11.5824 C16.392,10.7088 16.4016,10.4304 16.4016,8.2056 C16.4016,5.9808 16.392,5.7024 16.3512,4.8288 C16.3104,3.9576 16.1736,3.3624 15.9696,2.8392 C15.7608,2.304 15.48,1.8456 15.024,1.392 C14.568,0.936 14.112,0.6576 13.572,0.4464 C13.0512,0.2448 12.456,0.1056 11.5824,0.0648 C10.7112,0.0264 10.4328,0.0168 8.208,0.0168 Z" id="Shape" fill-rule="nonzero"></path>
                <path d="M8.208,4.0008 C5.8848,4.0008 4.0008,5.8848 4.0008,8.208 C4.0008,10.5312 5.8848,12.4152 8.208,12.4152 C10.5312,12.4152 12.4152,10.5312 12.4152,8.208 C12.4152,5.8848 10.5312,4.0008 8.208,4.0008 Z M8.208,10.9392 C6.7008,10.9392 5.4768,9.7176 5.4768,8.208 C5.4768,6.6984 6.7008,5.4768 8.208,5.4768 C9.7152,5.4768 10.9392,6.6984 10.9392,8.208 C10.9392,9.7176 9.7152,10.9392 8.208,10.9392 Z" id="Shape" fill-rule="nonzero"></path>
                <circle id="Oval" cx="12.5808" cy="3.8352" r="1"></circle>
            </g>
        </g>
    </g>
</svg>