<?xml version="1.0" encoding="UTF-8"?>
<svg width="24px" height="24px" viewBox="0 0 24 24" version="1.1" xmlns="http://www.w3.org/2000/svg" xmlns:xlink="http://www.w3.org/1999/xlink">
    <!-- Generator: Sketch 52.4 (67378) - http://www.bohemiancoding.com/sketch -->
    <title>iconfinder_2018_social_media_popular_app_logo_linkedin_3228550</title>
    <desc>Created with Sketch.</desc>
    <g id="Page-2" stroke="none" stroke-width="1" fill="none" fill-rule="evenodd">
        <g id="iconfinder_2018_social_media_popular_app_logo_linkedin_3228550">
            <path d="M12,24 C5.3736,24 0,18.6264 0,12 C0,5.3736 5.3736,0 12,0 C18.6264,0 24,5.3736 24,12 C24,18.6264 18.6264,24 12,24 Z" id="Path" fill="#0074CE"></path>
            <g id="Group" transform="translate(4.152000, 4.176000)" fill="#FFFFFF">
                <path d="M0.2688,5.1192 L3.4584,5.1192 L3.4584,15.384 L0.2688,15.384 L0.2688,5.1192 Z M1.8648,0.0168 C2.8848,0.0168 3.7128,0.8448 3.7128,1.8672 C3.7128,2.8896 2.8848,3.7176 1.8648,3.7176 C0.8424,3.7176 0.0144,2.8896 0.0144,1.8672 C0.012,0.8472 0.84,0.0168 1.8648,0.0168 Z" id="Shape" fill-rule="nonzero"></path>
                <path d="M5.46,5.1192 L8.52,5.1192 L8.52,6.5208 L8.5632,6.5208 C8.988,5.7144 10.0272,4.8624 11.5824,4.8624 C14.8128,4.8624 15.4104,6.9888 15.4104,9.7512 L15.4104,15.384 L12.2208,15.384 L12.2208,10.3944 C12.2208,9.2016 12.1992,7.6728 10.5624,7.6728 C8.9016,7.6728 8.6472,8.9688 8.6472,10.308 L8.6472,15.3864 L5.46,15.3864 L5.46,5.1192 Z" id="Path"></path>
            </g>
        </g>
    </g>
</svg>