<?xml version="1.0" encoding="UTF-8"?>
<svg width="24px" height="24px" viewBox="0 0 24 24" version="1.1" xmlns="http://www.w3.org/2000/svg" xmlns:xlink="http://www.w3.org/1999/xlink">
    <!-- Generator: Sketch 52.4 (67378) - http://www.bohemiancoding.com/sketch -->
    <title>iconfinder_2018_social_media_popular_app_logo_pinterest_3228548</title>
    <desc>Created with Sketch.</desc>
    <g id="Page-2" stroke="none" stroke-width="1" fill="none" fill-rule="evenodd">
        <g id="iconfinder_2018_social_media_popular_app_logo_pinterest_3228548">
            <path d="M12,24 C5.3736,24 0,18.6264 0,12 C0,5.3736 5.3736,0 12,0 C18.6264,0 24,5.3736 24,12 C24,18.6264 18.6264,24 12,24 Z" id="Path" fill="#0074CE"></path>
            <path d="M12.012,3.612 C7.3728,3.612 3.612,7.3728 3.612,12.012 C3.612,15.5712 5.8272,18.612 8.952,19.836 C8.8776,19.1712 8.8128,18.1488 8.9808,17.424 C9.1344,16.7688 9.9648,13.248 9.9648,13.248 C9.9648,13.248 9.7128,12.744 9.7128,12 C9.7128,10.8312 10.3896,9.96 11.232,9.96 C11.9496,9.96 12.2952,10.4976 12.2952,11.1432 C12.2952,11.8632 11.8368,12.9408 11.5992,13.9392 C11.4024,14.7744 12.0192,15.456 12.8424,15.456 C14.3352,15.456 15.4824,13.8816 15.4824,11.6088 C15.4824,9.5976 14.0376,8.1912 11.9736,8.1912 C9.5832,8.1912 8.1816,9.984 8.1816,11.8368 C8.1816,12.5592 8.46,13.332 8.8056,13.7544 C8.8752,13.8384 8.8848,13.9104 8.8632,13.9944 C8.7984,14.2608 8.6568,14.8296 8.6304,14.9472 C8.5944,15.1008 8.508,15.1344 8.3496,15.06 C7.3008,14.5728 6.6456,13.0368 6.6456,11.8056 C6.6456,9.156 8.5704,6.7224 12.1968,6.7224 C15.1104,6.7224 17.376,8.7984 17.376,11.5728 C17.376,14.472 15.552,16.8024 13.0176,16.8024 C12.1656,16.8024 11.3664,16.3608 11.0928,15.8376 C11.0928,15.8376 10.6728,17.4408 10.5696,17.8344 C10.38,18.564 9.8688,19.4784 9.5256,20.0376 C10.3104,20.28 11.1456,20.412 12.012,20.412 C16.6512,20.412 20.412,16.6512 20.412,12.012 C20.412,7.3728 16.6512,3.612 12.012,3.612 Z" id="Path" fill="#FFFFFF"></path>
        </g>
    </g>
</svg>