<?xml version="1.0" encoding="UTF-8"?>
<svg width="24px" height="24px" viewBox="0 0 24 24" version="1.1" xmlns="http://www.w3.org/2000/svg" xmlns:xlink="http://www.w3.org/1999/xlink">
    <!-- Generator: Sketch 52.4 (67378) - http://www.bohemiancoding.com/sketch -->
    <title>iconfinder_2018_social_media_popular_app_logo_twitter_3228543</title>
    <desc>Created with Sketch.</desc>
    <g id="Page-2" stroke="none" stroke-width="1" fill="none" fill-rule="evenodd">
        <g id="iconfinder_2018_social_media_popular_app_logo_twitter_3228543">
            <g id="Dark_Blue" fill="#0074CE">
                <path d="M12,0 C18.6264,0 24,5.3736 24,12 C24,18.6264 18.6264,24 12,24 C5.3736,24 0,18.6264 0,12 C0,5.3736 5.3736,0 12,0 Z" id="Path"></path>
            </g>
            <g id="Logo_FIXED">
                <path d="M9.216,18.096 C14.8752,18.096 17.9736,13.4064 17.9736,9.3384 C17.9736,9.2064 17.9736,9.072 17.964,8.94 C18.5664,8.5032 19.0872,7.9656 19.5,7.3464 C18.9384,7.596 18.3432,7.7592 17.7336,7.8312 C18.3768,7.4472 18.8568,6.8424 19.0872,6.1296 C18.4824,6.4872 17.8224,6.7416 17.1336,6.876 C15.9672,5.6376 14.0184,5.5776 12.78,6.7416 C11.9808,7.4928 11.6424,8.6136 11.8896,9.6816 C9.4152,9.5568 7.1088,8.388 5.5464,6.4656 C4.7304,7.872 5.1456,9.6696 6.4992,10.5744 C6.0096,10.56 5.5296,10.428 5.1024,10.1904 C5.1024,10.2024 5.1024,10.2168 5.1024,10.2288 C5.1024,11.6928 6.1344,12.9552 7.572,13.2456 C7.1184,13.368 6.6432,13.3872 6.1824,13.2984 C6.5856,14.5512 7.74,15.4104 9.0576,15.4368 C7.968,16.2936 6.6216,16.7592 5.2368,16.7568 C4.992,16.7568 4.7472,16.7424 4.5048,16.7112 C5.9064,17.616 7.5456,18.096 9.216,18.096" id="Path" fill="#FFFFFF"></path>
                <path d="M12,0 C18.6264,0 24,5.3736 24,12 C24,18.6264 18.6264,24 12,24 C5.3736,24 0,18.6264 0,12 C0,5.3736 5.3736,0 12,0 Z" id="Path"></path>
            </g>
        </g>
    </g>
</svg>