<?xml version="1.0" encoding="UTF-8"?>
<svg width="24px" height="24px" viewBox="0 0 24 24" version="1.1" xmlns="http://www.w3.org/2000/svg" xmlns:xlink="http://www.w3.org/1999/xlink">
    <!-- Generator: Sketch 52.4 (67378) - http://www.bohemiancoding.com/sketch -->
    <title>iconfinder_2018_social_media_popular_app_logo_youtube_3228540</title>
    <desc>Created with Sketch.</desc>
    <g id="Page-2" stroke="none" stroke-width="1" fill="none" fill-rule="evenodd">
        <g id="iconfinder_2018_social_media_popular_app_logo_youtube_3228540">
            <path d="M12,24 C5.3736,24 0,18.6264 0,12 C0,5.3736 5.3736,0 12,0 C18.6264,0 24,5.3736 24,12 C24,18.6264 18.6264,24 12,24 Z" id="Path" fill="#0074CE"></path>
            <path d="M19.6368,8.1384 C19.4544,7.4472 18.9144,6.9048 18.228,6.72 C16.9848,6.384 12.0024,6.384 12.0024,6.384 C12.0024,6.384 7.0176,6.384 5.7768,6.72 C5.0904,6.9048 4.5504,7.4472 4.368,8.1384 C4.032,9.3888 4.032,12 4.032,12 C4.032,12 4.032,14.6112 4.3656,15.8616 C4.548,16.5528 5.088,17.0952 5.7744,17.28 C7.0176,17.616 12,17.616 12,17.616 C12,17.616 16.9848,17.616 18.2256,17.28 C18.912,17.0952 19.452,16.5528 19.6344,15.8616 C19.968,14.6112 19.968,12 19.968,12 C19.968,12 19.968,9.3888 19.6368,8.1384 Z M10.3704,14.3688 L10.3704,9.6312 L14.5344,12 L10.3704,14.3688 Z" id="Shape" fill="#FFFFFF" fill-rule="nonzero"></path>
        </g>
    </g>
</svg>